<?xml version="1.0" standalone="no"?>
<!DOCTYPE svg PUBLIC "-//W3C//DTD SVG 20010904//EN"
 "http://www.w3.org/TR/2001/REC-SVG-20010904/DTD/svg10.dtd">
<svg version="1.0" xmlns="http://www.w3.org/2000/svg"
 width="1126.000000pt" height="1000.000000pt" viewBox="0 0 1126.000000 1000.000000"
 preserveAspectRatio="xMidYMid meet">

<g transform="translate(0.000000,1000.000000) scale(0.100000,-0.100000)"
fill="#3b82f6" stroke="none">
<path d="M5514 9572 c-40 -37 -143 -122 -514 -426 -107 -88 -244 -201 -305
-251 -60 -51 -288 -238 -506 -416 -218 -178 -580 -475 -804 -659 -225 -184
-445 -364 -489 -400 -185 -150 -368 -300 -482 -394 -66 -56 -188 -156 -270
-223 -165 -134 -458 -373 -904 -738 -398 -325 -674 -549 -920 -746 -175 -140
-201 -165 -180 -168 14 -2 350 -1 748 1 l722 4 -2 -1105 -3 -1106 -28 -89
c-60 -195 -71 -273 -71 -501 0 -181 3 -224 23 -315 53 -245 145 -464 271 -642
82 -117 240 -275 353 -353 47 -33 86 -63 86 -67 1 -5 -25 -8 -57 -8 -133 0
-621 -46 -862 -81 -189 -27 -528 -85 -635 -108 -89 -19 -56 -19 4368 -20
l4457 -1 -1 2258 0 2257 -152 121 c-197 157 -635 505 -902 716 -115 92 -338
269 -495 394 -157 124 -391 310 -520 412 -194 154 -629 500 -1115 887 -200
159 -738 577 -750 581 -12 5 -197 -133 -644 -479 -137 -106 -297 -229 -357
-275 -60 -45 -183 -139 -274 -209 -153 -118 -324 -247 -1410 -1064 -795 -598
-1544 -1149 -1563 -1149 -30 0 203 200 938 805 120 99 394 326 609 503 215
178 474 392 576 475 232 190 360 295 514 422 67 55 247 204 401 330 154 126
323 266 376 310 52 44 162 136 245 205 82 69 219 182 304 252 85 70 183 150
217 178 l62 52 188 -154 c103 -85 260 -212 348 -283 234 -189 613 -496 830
-675 105 -86 262 -214 350 -285 88 -71 297 -242 465 -379 168 -138 458 -374
645 -526 518 -420 1052 -856 1330 -1085 l250 -205 545 0 545 1 -35 30 c-38 33
-552 452 -1046 851 -93 75 -223 181 -289 235 -237 193 -353 286 -567 456
l-217 172 -1 718 0 717 -482 -2 -483 -3 -3 -313 c-1 -178 -6 -312 -11 -310 -5
2 -69 53 -142 113 -73 61 -169 139 -213 175 -45 36 -178 144 -296 241 -431
352 -873 710 -1220 988 -195 157 -384 309 -419 338 -36 29 -70 53 -75 53 -6 0
-29 -17 -52 -38z m-116 -2391 l102 -1 0 -245 0 -245 -245 0 -245 0 0 245 0
244 108 3 c59 2 123 2 142 1 19 -1 81 -2 138 -2z m752 -246 l0 -245 -245 0
-245 0 0 245 0 245 245 0 245 0 0 -245z m-650 -655 l0 -250 -245 0 -245 0 0
243 c0 134 3 247 7 250 3 4 114 7 245 7 l238 0 0 -250z m650 0 l0 -250 -245 0
-245 0 0 250 0 250 245 0 245 0 0 -250z m1754 -971 c31 -15 75 -76 78 -110 1
-13 -4 -46 -11 -72 -12 -43 -12 -54 8 -121 19 -65 22 -93 19 -227 -3 -159 -2
-167 42 -236 19 -30 5 -41 -28 -22 -32 17 -87 106 -106 169 -12 40 -11 50 6
95 15 37 19 65 15 105 -6 65 -25 112 -44 108 -8 -2 -47 -27 -87 -57 l-74 -55
2 -86 c1 -83 -1 -90 -41 -172 -33 -66 -58 -100 -111 -149 -37 -35 -90 -76
-117 -91 -68 -36 -198 -68 -287 -71 l-73 -2 -23 47 c-21 42 -22 50 -10 75 15
32 31 37 148 52 197 25 350 153 350 295 0 58 -17 92 -69 139 -47 42 -83 50
-221 45 l-95 -3 3 -27 c3 -31 3 -31 -211 -78 -71 -16 -131 -31 -133 -33 -8 -7
26 -91 45 -112 11 -11 59 -151 110 -320 126 -418 145 -472 169 -492 12 -10 27
-40 34 -68 7 -27 13 -51 14 -53 0 -1 20 4 43 13 123 43 368 68 535 55 279 -23
499 -100 736 -257 329 -219 564 -585 636 -988 23 -132 23 -376 1 -500 -51
-278 -149 -488 -332 -710 -216 -262 -497 -433 -848 -517 -79 -19 -121 -22
-292 -22 -169 0 -216 3 -302 22 -294 64 -554 205 -770 419 -202 201 -347 471
-410 763 -14 67 -18 129 -18 295 0 192 3 219 27 320 72 300 196 523 413 740
75 76 143 133 215 180 58 38 109 72 114 76 8 7 -58 225 -74 242 -4 5 -57 -47
-118 -115 -273 -305 -371 -415 -422 -473 -30 -34 -134 -152 -230 -261 -96
-109 -211 -239 -255 -289 -44 -51 -134 -153 -199 -226 -66 -74 -128 -144 -139
-156 -19 -21 -19 -22 4 -85 47 -134 22 -331 -57 -434 l-33 -43 81 -101 c88
-110 78 -105 169 -80 25 8 53 11 62 7 19 -7 33 -55 20 -68 -12 -12 -332 -129
-354 -129 -19 0 -29 19 -29 55 0 19 11 28 55 46 35 14 54 28 51 36 -11 28
-130 163 -140 159 -144 -65 -229 -76 -586 -76 l-235 -1 -42 -72 c-135 -238
-383 -471 -634 -598 -98 -49 -278 -111 -394 -135 -121 -26 -410 -26 -537 -1
-300 60 -555 189 -765 390 -183 176 -297 348 -386 587 -63 169 -81 278 -81
495 -1 278 34 435 149 671 193 397 559 687 1013 802 100 25 122 26 327 27 242
0 306 -9 478 -67 97 -32 232 -93 284 -128 l31 -21 68 98 c38 54 102 145 144
203 42 58 99 139 128 180 l52 76 -39 144 c-39 142 -132 449 -152 502 -10 25
-14 26 -102 30 l-92 3 -200 105 c-192 101 -200 106 -203 137 -4 41 11 69 46
87 24 12 108 13 578 6 541 -8 601 -12 664 -45 43 -22 82 -74 78 -104 l-3 -26
-170 -6 c-187 -7 -202 -9 -292 -50 -34 -16 -74 -31 -88 -35 -17 -4 -24 -11
-21 -23 81 -285 169 -557 185 -574 4 -4 183 11 397 33 214 22 607 63 874 90
267 27 562 57 656 66 l171 18 -2 50 c-1 28 -23 117 -48 197 -26 80 -47 152
-47 160 0 22 66 56 135 68 348 65 328 60 357 91 25 28 32 30 100 30 385 1 511
11 580 46 15 8 39 35 54 62 42 73 70 87 128 61z"/>
<path d="M6679 4316 c-2 -2 -80 -9 -174 -15 -287 -20 -531 -40 -730 -61 -104
-11 -338 -33 -520 -50 -521 -47 -644 -62 -640 -74 6 -17 145 -493 220 -751 81
-281 146 -495 191 -636 l34 -106 68 -5 c38 -3 94 -16 130 -30 l62 -26 88 97
c48 53 130 146 183 207 189 214 540 613 779 884 133 151 276 315 317 363 l75
89 -19 59 c-14 47 -22 59 -39 59 -11 0 -23 -2 -25 -4z"/>
<path d="M4295 3832 c-60 -86 -131 -186 -157 -223 l-47 -67 72 -61 c185 -154
358 -412 441 -656 l23 -70 64 3 c35 2 67 6 71 10 6 7 -203 749 -296 1048 -25
82 -46 155 -46 162 0 27 -20 4 -125 -146z"/>
<path d="M3015 3559 c-459 -67 -843 -381 -985 -807 -151 -456 -36 -941 301
-1267 107 -104 181 -156 306 -220 452 -228 1008 -145 1378 206 64 61 175 188
175 201 0 2 -220 2 -490 -1 -453 -3 -490 -2 -490 14 0 9 18 80 40 157 22 78
40 146 40 151 0 6 -17 7 -41 3 -58 -9 -150 10 -249 51 -47 20 -86 37 -88 38
-1 1 7 24 18 51 21 47 21 49 3 88 -40 89 -16 216 57 299 55 64 111 90 202 95
l78 5 53 76 c30 42 86 123 127 181 280 401 352 511 340 524 -16 21 -182 91
-280 119 -148 43 -347 57 -495 36z"/>
<path d="M7555 3561 c-76 -9 -245 -48 -258 -60 -4 -4 15 -88 43 -185 94 -326
207 -597 360 -861 32 -55 59 -107 60 -115 5 -35 -2 -48 -30 -60 -46 -19 -73
-7 -98 45 -12 25 -51 85 -86 133 -186 255 -395 659 -467 900 -7 23 -16 42 -20
42 -19 0 -182 -131 -255 -205 -169 -172 -278 -385 -325 -635 -18 -93 -15 -307
5 -420 73 -406 307 -708 692 -892 458 -218 1027 -108 1384 269 225 236 343
568 327 917 -25 532 -431 1001 -963 1111 -90 18 -276 26 -369 16z"/>
<path d="M3775 3088 c-82 -117 -193 -275 -247 -351 -55 -77 -97 -141 -95 -143
3 -3 214 -2 471 2 l466 7 -6 26 c-28 119 -102 288 -175 401 -43 64 -238 270
-257 270 -5 0 -76 -96 -157 -212z"/>
<path d="M4757 2677 l-27 -12 34 -37 c31 -34 56 -48 56 -32 0 17 -23 94 -29
94 -3 -1 -18 -6 -34 -13z"/>
<path d="M3440 2534 c0 -3 9 -18 20 -34 11 -15 24 -39 30 -54 7 -19 17 -26 36
-26 34 0 484 -62 694 -95 86 -14 159 -25 163 -25 9 0 9 130 1 194 l-7 46 -468
0 c-258 0 -469 -3 -469 -6z"/>
<path d="M4670 2458 c0 -45 2 -79 4 -77 2 2 20 26 40 52 l37 48 -23 29 c-13
16 -31 29 -40 29 -16 1 -18 -9 -18 -81z"/>
<path d="M3486 2207 c-3 -14 -22 -46 -42 -72 l-35 -47 25 -139 c14 -76 26
-157 26 -180 l0 -41 380 4 c327 3 382 5 395 19 35 35 140 317 124 333 -5 5
-719 129 -815 142 -49 6 -52 5 -58 -19z"/>
<path d="M4635 1993 c-4 -20 -22 -84 -41 -141 -19 -58 -33 -107 -31 -109 3 -2
78 -2 168 -1 l164 3 -44 23 c-82 44 -191 179 -191 236 0 32 -18 24 -25 -11z"/>
</g>
</svg>
